<?xml version="1.0" encoding="UTF-8" standalone="no"?>
<svg
   xmlns:dc="http://purl.org/dc/elements/1.1/"
   xmlns:cc="http://creativecommons.org/ns#"
   xmlns:rdf="http://www.w3.org/1999/02/22-rdf-syntax-ns#"
   xmlns:svg="http://www.w3.org/2000/svg"
   xmlns="http://www.w3.org/2000/svg"
   xmlns:sodipodi="http://sodipodi.sourceforge.net/DTD/sodipodi-0.dtd"
   xmlns:inkscape="http://www.inkscape.org/namespaces/inkscape"
   width="413.208"
   height="770.094"
   viewBox="0 0 109.328 203.754"
   version="1.1"
   id="svg905"
   sodipodi:docname="colosso.svg"
   inkscape:version="1.0 (b51213c273, 2020-08-10)">
  <metadata
     id="metadata911">
    <rdf:RDF>
      <cc:Work
         rdf:about="">
        <dc:format>image/svg+xml</dc:format>
        <dc:type
           rdf:resource="http://purl.org/dc/dcmitype/StillImage" />
        <dc:title></dc:title>
      </cc:Work>
    </rdf:RDF>
  </metadata>
  <defs
     id="defs909" />
  <sodipodi:namedview
     pagecolor="#ffffff"
     bordercolor="#666666"
     borderopacity="1"
     objecttolerance="10"
     gridtolerance="10"
     guidetolerance="10"
     inkscape:pageopacity="0"
     inkscape:pageshadow="2"
     inkscape:window-width="1440"
     inkscape:window-height="871"
     id="namedview907"
     showgrid="false"
     inkscape:zoom="0.45189289"
     inkscape:cx="-63.793118"
     inkscape:cy="532.95712"
     inkscape:window-x="0"
     inkscape:window-y="0"
     inkscape:window-maximized="1"
     inkscape:current-layer="svg905" />
  <path
     d="m 48.834,9.895 c 0,0 -0.99,-0.782 -0.959,-1.717 0.032,-0.935 0.166,-1.591 0.166,-1.591 l 1.202,1.149 c 0,0 -0.154,-0.58 -0.08,-1.076 0.072,-0.496 0.653,-1.172 0.653,-1.172 l 0.785,1.867 c 0,0 -0.372,-2.401 0.64,-3.777 1.014,-1.375 2.26,-3.446 2.26,-3.446 l 1.163,1.332 0.706,-1.31 c 0,0 -0.012,0.546 0.313,1.61 0.326,1.062 0.517,1.783 0.517,1.783 l 0.974,-1.04 c 0,0 -0.316,1.51 -0.01,2.416 0.306,0.906 0.41,1.573 0.41,1.573 l 0.668,-0.845 c 0,0 -0.145,0.715 0.005,1.512 0.15,0.797 0.178,0.788 0.178,0.788 0,0 0.605,-0.292 0.72,-0.631 0.115,-0.34 0.091,-0.352 0.091,-0.352 0,0 0.312,1.182 -0.109,2.044 -0.42,0.861 -10.081,1.293 -10.293,0.883 z"
     fill="#ffa430"
     stroke-width="0.265"
     stroke-linejoin="round"
     id="path833"
     style="stroke:#000000" />
  <path
     d="m 71.118,139.487 c 0,0 0.761,2.467 2.242,5.715 1.481,3.249 0.597,5.403 2.451,10.157 1.854,4.754 2.01,3.128 4.648,10.881 2.637,7.753 2,10.358 3.175,11.64 1.175,1.283 3.762,0.645 4.487,-3.225 0.725,-3.871 -0.217,-13.967 -0.44,-18.529 -0.222,-4.562 -0.833,-9.591 -3.542,-13.777 -2.708,-4.186 -3.93,-6.53 -6.083,-7.886 -2.154,-1.357 -8.215,2.025 -6.938,5.024 z"
     fill="#e6e6e6"
     stroke-width="0.265"
     id="path835"
     style="stroke:#000000" />
  <path
     d="m 71.573,98.179 c 0,0 1.612,3.978 3.2,8.33 1.59,4.353 2.093,18.211 2.973,20.422 0.88,2.21 2.95,8.633 1.689,12.842 -1.261,4.21 -5.977,4.898 -9.263,-1.588 -3.285,-6.486 -2.744,-6.776 -6.286,-11.948 -3.542,-5.172 -6.052,-15.784 -6.052,-15.784 0,0 -1.102,-5.924 4.397,-11.844 5.5,-5.919 8.134,-3.28 9.342,-0.43 z m 16.753,74.614 c 0,0 2.012,1.874 5.9,4.47 3.888,2.596 7.408,3.206 7.763,4.194 0.354,0.988 -18.306,0.76 -18.306,0.76 0,0 -1.421,-1.482 -0.022,-5.183 1.4,-3.701 3.666,-5.128 4.665,-4.24 z"
     fill="#e6e6e6"
     stroke-width="0.265"
     id="path837"
     style="stroke:#000000;stroke-width:0.26511253;stroke-miterlimit:4;stroke-dasharray:none" />
  <path
     d="m 77.32,76.583 c 0,0 1.958,3.278 2.084,4.983 0.125,1.705 -0.753,1.194 -0.628,6.82 0.126,5.626 0.044,5.985 -1.156,8.718 -1.2,2.733 -1.652,3.573 -1.652,3.573 0,0 -2.485,0.48 -3.677,3.132 -1.192,2.653 -1.054,5.314 -1.054,5.314 0,0 0.564,1.21 2.05,-0.648 1.486,-1.858 1.486,-1.966 1.486,-1.966 0,0 1.639,1.812 1.447,4.845 -0.192,3.032 -0.519,2.916 -0.283,3.967 0.236,1.05 1.529,2.503 1.529,2.503 0,0 2.784,-5.131 2.901,-7.957 0.117,-2.826 0.095,-6.804 0.095,-6.804 0,0 5.912,-9.577 6.66,-14.81 0.748,-5.233 0.256,-8.874 0.256,-8.874 0,0 -0.999,-2.318 -4.52,-3.505 -3.522,-1.186 -5.539,0.709 -5.539,0.709 z"
     fill="#e6e6e6"
     stroke-width="0.265"
     id="path839"
     style="stroke:#000000" />
  <path
     d="m 66.115,50.12 c 0,0 1.712,-0.074 3.465,-0.334 1.752,-0.26 3.93,0.089 6.75,4.55 2.819,4.46 3.131,6.037 4.645,10.442 1.513,4.406 2.138,3.489 3.366,7.185 1.227,3.696 3.037,7.416 3.037,7.416 0,0 -1.396,3.102 -4.68,1.704 -3.283,-1.398 -5.379,-4.5 -5.379,-4.5 0,0 -1.662,-1.002 -5.904,-7.488 -3.587,-6.289 -8.362,-12.127 -5.3,-18.975 z"
     fill="#e6e6e6"
     stroke-width="0.265"
     id="path841"
     style="stroke:#000000" />
  <path
     d="m 50.681,43.233 a 3.757,3.757 0 0 0 -1.107,0.175 c 0,0 0.663,2.915 -0.624,4.221 -1.288,1.306 -4.01,2.122 -5.393,2.31 -1.384,0.19 0.307,-0.251 -0.96,4.979 -1.266,5.23 -4.684,14.177 -4.684,14.177 l 4.325,13.11 c 0,0 7.6,-1.11 12.426,-1.033 4.826,-0.077 12.425,1.034 12.425,1.034 l 4.326,-13.111 c 0,0 -3.418,-8.948 -4.684,-14.177 -1.267,-5.23 0.424,-4.79 -0.96,-4.979 -1.384,-0.189 -4.105,-1.004 -5.393,-2.31 -1.287,-1.306 -0.624,-4.221 -0.624,-4.221 -2.575,-0.782 -3.698,1.22 -5.09,2.705 -1.175,-1.252 -2.157,-2.874 -3.983,-2.88 z"
     fill="#e6e6e6"
     stroke-width="0.265"
     id="path843"
     style="stroke:#000000" />
  <path
     d="m 54.663,21.207 -1.363,3.81 -3.173,-2.995 0.365,4.147 -3.91,-1.313 1.898,3.442 -0.515,0.649 -2.921,-0.65 2.006,2.124 -0.219,0.564 -2.297,0.604 1.738,1.409 -0.075,1.356 -1.358,1.057 1.517,0.875 c 0,0 -0.572,-4.19 1.347,-6.744 1.919,-2.555 6.96,-4.176 6.96,-4.176 0,0 5.041,1.62 6.96,4.176 1.92,2.555 1.347,6.744 1.347,6.744 l 1.517,-0.875 -1.358,-1.057 -0.075,-1.356 1.738,-1.41 -2.297,-0.603 -0.219,-0.564 2.006,-2.125 -2.921,0.651 -0.515,-0.65 1.898,-3.44 -3.91,1.312 0.365,-4.147 -3.174,2.995 z"
     fill="#e6e6e6"
     stroke-width="0.265"
     id="path845"
     style="stroke:#000000" />
  <path
     d="m 54.66153,26.560397 -5.651164,3.239253 -2.65559,6.485121 3.216764,7.122493 1.260459,1.249612 c 1.260724,1.249611 3.829531,1.456248 3.829531,1.456248 0,0 2.568543,-0.206373 3.829266,-1.456248 l 1.260989,-1.249612 3.216763,-7.122493 -2.655589,-6.485121 z"
     fill="#e6e6e6"
     id="path847"
     style="stroke:#000000;stroke-width:0.26458" />
  <path
     d="m 54.657,39.367 c 0,0 0.342,0.15 0.894,-0.355 0.552,-0.506 0.863,0.08 0.863,0.08"
     fill="none"
     stroke-width="0.253"
     stroke-linecap="round"
     id="path849"
     style="stroke:#000000" />
  <path
     d="m 57.033,35.357 c 0,0 -0.817,-0.38 -0.594,-0.781 0.224,-0.401 1.764,-0.762 2.604,-0.25 0.84,0.512 -0.702,1.443 -2.01,1.03 z"
     fill="#e6e6e6"
     stroke-width="0.265"
     id="path851"
     style="stroke:#000000" />
  <path
     d="m 54.663,41.123 c 0,0 0.395,-0.169 0.997,0.072 0.601,0.242 1.391,0.386 1.391,0.386"
     fill="none"
     stroke-width="0.265"
     stroke-linecap="round"
     id="path853"
     style="stroke:#000000" />
  <path
     d="m 54.506222,25.357087 c -0.708281,-0.02011 -3.717349,0.116416 -6.54227,3.589293 -3.22867,3.968964 -1.986202,8.975876 -0.334429,12.101889 1.651773,3.126013 1.942017,2.358995 1.942017,2.358995 0,0 0.213251,-1.58748 -0.849302,-4.011033 -1.063082,-2.423552 -0.522281,-3.452504 -0.249234,-5.597454 0.273046,-2.14495 1.232678,-2.541556 3.097967,-3.940919 1.865289,-1.399099 3.090559,-1.80814 3.090559,-1.80814 0,0 1.225535,0.409041 3.090824,1.80814 1.865289,1.399363 2.82492,1.795969 3.098231,3.940919 0.272518,2.14495 0.813584,3.173637 -0.249234,5.597454 -1.063082,2.423553 -0.849566,4.011033 -0.849566,4.011033 0,0 0.289979,0.767018 1.942017,-2.358995 1.651773,-3.126013 2.893976,-8.132925 -0.334429,-12.101889 -3.22867,-3.968965 -6.697843,-3.580561 -6.697843,-3.580561 0,0 -0.05424,-0.0061 -0.155308,-0.0087 z"
     fill="#e6e6e6"
     stroke-width="0.265109"
     id="path855"
     style="stroke:#000000" />
  <path
     d="m 54.669,39.367 c 0,0 -0.342,0.15 -0.894,-0.355 -0.552,-0.506 -0.863,0.08 -0.863,0.08"
     fill="none"
     stroke-width="0.253"
     stroke-linecap="round"
     id="path857"
     style="stroke:#000000" />
  <path
     d="m 52.293,35.357 c 0,0 0.817,-0.38 0.594,-0.781 -0.224,-0.401 -1.764,-0.762 -2.604,-0.25 -0.84,0.512 0.701,1.443 2.01,1.03 z"
     fill="#e6e6e6"
     stroke-width="0.265"
     id="path859"
     style="stroke:#000000" />
  <path
     d="m 54.663,41.123 c 0,0 -0.395,-0.169 -0.997,0.072 -0.601,0.242 -1.392,0.386 -1.392,0.386"
     fill="none"
     stroke-width="0.265"
     stroke-linecap="round"
     id="path861"
     style="stroke:#000000" />
  <path
     d="m 38.21,139.487 c 0,0 -0.761,2.467 -2.242,5.715 -1.481,3.249 -0.597,5.403 -2.451,10.157 -1.854,4.754 -2.01,3.128 -4.648,10.881 -2.637,7.753 -2,10.358 -3.175,11.64 -1.175,1.283 -3.762,0.645 -4.487,-3.225 -0.725,-3.871 0.217,-13.967 0.44,-18.529 0.222,-4.562 0.833,-9.591 3.542,-13.777 2.708,-4.186 3.93,-6.53 6.083,-7.886 2.154,-1.357 8.215,2.025 6.938,5.024 z"
     fill="#e6e6e6"
     stroke-width="0.265"
     id="path863"
     style="stroke:#000000" />
  <path
     d="m 37.755,98.179 c 0,0 -1.612,3.978 -3.2,8.33 -1.59,4.353 -2.093,18.211 -2.973,20.422 -0.88,2.21 -2.95,8.633 -1.689,12.842 1.261,4.21 5.977,4.898 9.263,-1.588 3.285,-6.486 2.744,-6.776 6.286,-11.948 3.542,-5.172 6.052,-15.784 6.052,-15.784 0,0 1.102,-5.924 -4.397,-11.844 -5.5,-5.919 -8.134,-3.28 -9.342,-0.43 z m -16.753,74.614 c 0,0 -2.012,1.874 -5.9,4.47 -3.888,2.596 -7.408,3.206 -7.763,4.194 -0.354,0.988 18.306,0.76 18.306,0.76 0,0 1.421,-1.482 0.022,-5.183 -1.4,-3.701 -3.666,-5.128 -4.665,-4.24 z"
     fill="#e6e6e6"
     stroke-width="0.265"
     id="path865"
     style="stroke:#000000;stroke-width:0.26511253;stroke-miterlimit:4;stroke-dasharray:none" />
  <g
     id="g885"
     style="stroke:#000000">
    <path
       d="m 108.243,41.164 -1.363,3.81 -3.173,-2.995 0.365,4.147 -3.91,-1.313 1.898,3.442 -0.515,0.649 -2.921,-0.65 2.006,2.124 -0.219,0.564 -2.297,0.604 1.738,1.409 -0.075,1.356 -1.358,1.057 1.517,0.875 c 0,0 -0.572,-4.19 1.347,-6.744 1.919,-2.555 6.96,-4.176 6.96,-4.176 0,0 5.041,1.62 6.96,4.176 1.92,2.555 1.347,6.744 1.347,6.744 l 1.517,-0.875 -1.358,-1.057 -0.075,-1.356 1.738,-1.41 -2.297,-0.603 -0.219,-0.564 2.006,-2.125 -2.921,0.651 -0.515,-0.65 1.898,-3.44 -3.91,1.312 0.365,-4.147 -3.174,2.995 z"
       fill="#e6e6e6"
       stroke-width="0.265"
       transform="matrix(-1,0,0,1,162.907,-19.957)"
       id="path867" />
    <path
       d="m 409.107,175.816 -21.359,12.243 -10.037,24.511 12.158,26.92 4.764,4.723 c 4.765,4.723 14.474,5.504 14.474,5.504 0,0 9.708,-0.78 14.473,-5.504 l 4.766,-4.723 12.158,-26.92 -10.037,-24.511 z"
       transform="matrix(-0.26458,0,0,0.26458,162.907,-19.957)"
       fill="#e6e6e6"
       id="path869" />
    <path
       d="m 108.237,59.324 c 0,0 0.342,0.15 0.894,-0.355 0.552,-0.506 0.863,0.08 0.863,0.08"
       fill="none"
       stroke-width="0.253"
       stroke-linecap="round"
       transform="matrix(-1,0,0,1,162.907,-19.957)"
       id="path871" />
    <path
       d="m 110.613,55.314 c 0,0 -0.817,-0.38 -0.594,-0.781 0.224,-0.401 1.764,-0.762 2.604,-0.25 0.84,0.512 -0.702,1.443 -2.01,1.03 z"
       fill="#e6e6e6"
       stroke-width="0.265"
       transform="matrix(-1,0,0,1,162.907,-19.957)"
       id="path873" />
    <path
       d="m 108.243,61.08 c 0,0 0.395,-0.169 0.997,0.072 0.601,0.242 1.391,0.386 1.391,0.386"
       fill="none"
       stroke-width="0.265"
       stroke-linecap="round"
       transform="matrix(-1,0,0,1,162.907,-19.957)"
       id="path875" />
    <path
       d="m 408.52,171.268 c -2.677,-0.076 -14.05,0.44 -24.727,13.566 -12.203,15.001 -7.507,33.925 -1.264,45.74 6.243,11.815 7.34,8.916 7.34,8.916 0,0 0.806,-6 -3.21,-15.16 -4.018,-9.16 -1.974,-13.049 -0.942,-21.156 1.032,-8.107 4.659,-9.606 11.709,-14.895 7.05,-5.288 11.681,-6.834 11.681,-6.834 0,0 4.632,1.546 11.682,6.834 7.05,5.289 10.677,6.788 11.71,14.895 1.03,8.107 3.075,11.995 -0.942,21.156 -4.018,9.16 -3.211,15.16 -3.211,15.16 0,0 1.096,2.899 7.34,-8.916 6.243,-11.815 10.938,-30.739 -1.264,-45.74 -12.203,-15.001 -25.315,-13.533 -25.315,-13.533 0,0 -0.205,-0.023 -0.587,-0.033 z"
       transform="matrix(-0.26458,0,0,0.26458,162.907,-19.957)"
       fill="#e6e6e6"
       stroke-width="1.002"
       id="path877" />
    <path
       d="m 108.249,59.324 c 0,0 -0.342,0.15 -0.894,-0.355 -0.552,-0.506 -0.863,0.08 -0.863,0.08"
       fill="none"
       stroke-width="0.253"
       stroke-linecap="round"
       transform="matrix(-1,0,0,1,162.907,-19.957)"
       id="path879" />
    <path
       d="m 105.873,55.314 c 0,0 0.817,-0.38 0.594,-0.781 -0.224,-0.401 -1.764,-0.762 -2.604,-0.25 -0.84,0.512 0.701,1.443 2.01,1.03 z"
       fill="#e6e6e6"
       stroke-width="0.265"
       transform="matrix(-1,0,0,1,162.907,-19.957)"
       id="path881" />
    <path
       d="m 108.243,61.08 c 0,0 -0.395,-0.169 -0.997,0.072 -0.601,0.242 -1.392,0.386 -1.392,0.386"
       fill="none"
       stroke-width="0.265"
       stroke-linecap="round"
       transform="matrix(-1,0,0,1,162.907,-19.957)"
       id="path883" />
  </g>
  <g
     fill="#e6e6e6"
     stroke-width="0.265"
     id="g897"
     style="stroke:#000000">
    <path
       d="m 130.118,203.097 5.162,-1.652 v 22.024 l -5.153,-2.653 z"
       stroke-linejoin="round"
       transform="translate(-53.58,-19.957)"
       id="path887" />
    <path
       d="m 135.327,201.445 v 22.11 l 3.922,0.004 v 0.02 l 7.197,-0.01 7.197,0.01 v -0.02 l 3.923,-0.005 v -22.11 h -18.317 z"
       stroke-linejoin="bevel"
       transform="translate(-53.58,-19.957)"
       id="path889" />
    <path
       d="m 162.774,203.097 -5.162,-1.652 v 22.024 l 5.153,-2.653 z m -76.406,0 -5.163,-1.652 v 22.024 l 5.154,-2.653 z"
       stroke-linejoin="round"
       transform="translate(-53.58,-19.957)"
       id="path891" />
    <path
       d="m 81.159,201.445 v 22.11 l -3.923,0.004 v 0.02 l -7.197,-0.01 -7.196,0.01 v -0.02 l -3.923,-0.005 v -22.11 h 18.316 z"
       stroke-linejoin="bevel"
       transform="translate(-53.58,-19.957)"
       id="path893" />
    <path
       d="m 53.711,203.097 5.163,-1.652 v 22.024 l -5.153,-2.653 z"
       stroke-linejoin="round"
       transform="translate(-53.58,-19.957)"
       id="path895" />
  </g>
  <path
     d="m 54.664,80.588 c -1,-0.107 -12.426,1.618 -12.426,1.618 0,0 0.316,0.651 -0.85,4.262 -1.167,3.61 -0.933,4.408 -0.933,4.408 0,0 -0.347,-0.202 -0.938,1.305 -0.59,1.507 -0.891,1.168 -1.152,2.102 -0.261,0.934 -1.047,2.046 -1.128,2.576 -0.082,0.53 0.517,1.32 0.517,1.32 0,0 2.149,-2.756 4.216,-1.157 2.066,1.599 4.324,4.506 6.455,8.663 2.13,4.157 2.557,4.805 4.398,5.526 1.84,0.72 1.841,0.633 1.841,0.633 0,0 0,0.088 1.84,-0.633 1.842,-0.721 2.268,-1.369 4.399,-5.526 2.13,-4.157 4.389,-7.064 6.455,-8.663 2.067,-1.599 4.215,1.157 4.215,1.157 0,0 0.6,-0.79 0.519,-1.32 -0.082,-0.53 -0.868,-1.642 -1.13,-2.576 -0.26,-0.934 -0.56,-0.595 -1.151,-2.102 -0.591,-1.507 -0.937,-1.305 -0.937,-1.305 0,0 0.233,-0.797 -0.933,-4.408 -1.167,-3.61 -0.852,-4.262 -0.852,-4.262 0,0 -11.426,-1.725 -12.425,-1.618 z M 46.197,49.44 c 0,0 -0.417,-2.18 -3.492,-4.715 -3.074,-2.535 -2.158,-3.386 -5.682,-8.883 -3.525,-5.498 -2.316,-6.758 -6.31,-8.29 -3.994,-1.533 -5.894,-1.463 -5.443,2.408 0.451,3.871 1.873,9.45 4.886,15.774 3.013,6.324 2.75,5.242 3.388,9.205 0.637,3.962 1.598,5.753 2.984,9.954 l 1.385,4.202 c 0,0 0.914,2.674 4.13,-4.458 3.216,-7.132 4.154,-15.197 4.154,-15.197 z"
     fill="#e6e6e6"
     stroke-width="0.265"
     id="path899"
     style="stroke:#000000;stroke-width:0.26511253;stroke-miterlimit:4;stroke-dasharray:none" />
  <path
     d="m 34.161,31.157 c 0,0 5.89,-5.606 10.149,-8.305 4.258,-2.7 5.98,-3.152 8.203,-3.395 2.223,-0.243 4.164,1.516 7.428,-1.29 3.264,-2.805 4.233,-5.206 4.233,-5.206 l 0.33,-2.582 c 0,0 -4.261,-1.812 -9.768,-1.706 -5.506,0.107 -10.54,2.711 -10.54,2.711 l 0.99,3.411 2.6,1.27 c 0,0 -1.304,1.324 -5.066,2.349 -3.763,1.024 -13.73,5.123 -16.885,8.643 -3.154,3.521 6.448,5.687 8.326,4.1 z"
     fill="#e6e6e6"
     stroke-width="0.264"
     id="path901"
     style="stroke:#000000" />
</svg>
